<svg width="29" height="14" viewBox="0 0 29 14" fill="none" xmlns="http://www.w3.org/2000/svg">
<path d="M3.92 1.92H6.512L10.144 12H7.568L6.88 9.84H3.488L2.8 12H0.256L3.92 1.92ZM4.016 8.08H6.32L5.936 6.864C5.808 6.46933 5.67467 6.048 5.536 5.6C5.408 5.152 5.296 4.74133 5.2 4.368H5.168C5.06133 4.74133 4.93867 5.14667 4.8 5.584C4.66133 6.02133 4.528 6.448 4.4 6.864L4.016 8.08ZM10.4215 13.744L15.7335 -9.53674e-07H16.4855L11.1735 13.744H10.4215Z" fill="#FBBC04"/>
<path d="M21.8775 6.288C21.6748 5.968 21.4028 5.70133 21.0615 5.488C20.7308 5.264 20.3415 5.152 19.8935 5.152C19.6162 5.152 19.3548 5.19467 19.1095 5.28C18.8642 5.35467 18.6508 5.472 18.4695 5.632C18.2882 5.792 18.1442 6 18.0375 6.256C17.9308 6.50133 17.8775 6.79467 17.8775 7.136C17.8775 7.81867 18.0588 8.34667 18.4215 8.72C18.7948 9.08267 19.3015 9.264 19.9415 9.264C20.5175 9.264 20.9815 9.088 21.3335 8.736C21.6962 8.37333 21.8775 7.824 21.8775 7.088V6.288ZM22.6295 12H21.8615V8.944C21.7122 9.22133 21.4455 9.45067 21.0615 9.632C20.6882 9.81333 20.2988 9.904 19.8935 9.904C19.5202 9.904 19.1628 9.84533 18.8215 9.728C18.4802 9.61067 18.1815 9.43467 17.9255 9.2C17.6695 8.96533 17.4615 8.672 17.3015 8.32C17.1522 7.968 17.0775 7.55733 17.0775 7.088C17.0775 6.672 17.1468 6.304 17.2855 5.984C17.4242 5.664 17.6162 5.39733 17.8615 5.184C18.1068 4.96 18.3948 4.79467 18.7255 4.688C19.0562 4.57067 19.4082 4.512 19.7815 4.512C20.1868 4.512 20.5708 4.58667 20.9335 4.736C21.2962 4.88533 21.6055 5.13067 21.8615 5.472V2.528H16.2775V1.92H28.3415V2.528H22.6295V5.648C22.7788 5.38133 23.0455 5.136 23.4295 4.912C23.8135 4.688 24.2615 4.576 24.7735 4.576C25.1148 4.576 25.4455 4.62933 25.7655 4.736C26.0855 4.84267 26.3628 5.00267 26.5975 5.216C26.8428 5.42933 27.0348 5.69067 27.1735 6C27.3228 6.30933 27.3975 6.66667 27.3975 7.072C27.3975 7.54133 27.3175 7.94133 27.1575 8.272C26.9975 8.60267 26.7842 8.88 26.5175 9.104C26.2508 9.31733 25.9362 9.47733 25.5735 9.584C25.2108 9.68 24.8322 9.728 24.4375 9.728C24.3202 9.728 24.1815 9.72267 24.0215 9.712C23.8722 9.69067 23.7548 9.65867 23.6695 9.616L23.8135 9.024C23.8988 9.04533 23.9948 9.06133 24.1015 9.072C24.2082 9.08267 24.3095 9.088 24.4055 9.088C24.7042 9.088 24.9815 9.05067 25.2375 8.976C25.5042 8.89067 25.7388 8.768 25.9415 8.608C26.1442 8.43733 26.3042 8.224 26.4215 7.968C26.5388 7.712 26.5975 7.408 26.5975 7.056C26.5975 6.46933 26.4268 6.016 26.0855 5.696C25.7442 5.376 25.2748 5.216 24.6775 5.216C24.3895 5.216 24.1228 5.26933 23.8775 5.376C23.6322 5.472 23.4135 5.616 23.2215 5.808C23.0402 6 22.8962 6.23467 22.7895 6.512C22.6828 6.77867 22.6295 7.08267 22.6295 7.424V12Z" fill="#FBDC94"/>
</svg>
